<svg version="1.1" id="Layer_1" xmlns="http://www.w3.org/2000/svg" xmlns:xlink="http://www.w3.org/1999/xlink" x="0px" y="0px"
	 width="100%" viewBox="0 0 180 180" enable-background="new 0 0 180 180" xml:space="preserve">
<path fill="#010155" opacity="1.000000" stroke="none" 
	d="
M0.999998,172.000000 
	C1.000000,118.312439 1.000000,64.624878 1.339957,10.444378 
	C4.453276,6.967628 7.226638,3.983814 10.000000,1.000000 
	C63.687561,1.000000 117.375122,1.000000 171.555618,1.339959 
	C175.032364,4.453280 178.016190,7.226641 181.000000,10.000002 
	C181.000000,63.687561 181.000000,117.375122 180.660034,171.555634 
	C177.546722,175.032379 174.773361,178.016190 172.000000,181.000000 
	C118.312439,181.000000 64.624878,181.000000 10.444376,180.660034 
	C6.967623,177.546722 3.983810,174.773361 0.999998,172.000000 
M124.464478,33.847115 
	C118.105759,33.112831 111.675194,31.402830 105.404556,31.864624 
	C95.056877,32.626671 87.471176,39.290077 80.660568,46.551731 
	C71.192032,56.647335 64.868477,68.722397 59.676014,81.398109 
	C58.520412,84.219131 56.825390,85.169716 54.089039,86.158577 
	C47.284130,88.617722 40.554573,91.456955 34.195076,94.886002 
	C31.903170,96.121811 30.754417,99.477715 29.083986,101.866112 
	C29.464226,102.423393 29.844465,102.980682 30.224705,103.537964 
	C33.766033,103.260254 37.314522,103.051666 40.846687,102.685547 
	C44.427170,102.314407 47.991520,101.787613 52.299911,101.234360 
	C50.944016,107.187386 49.250416,112.401413 48.656643,117.737823 
	C47.706909,126.273415 47.071182,134.892532 47.118858,143.471817 
	C47.146263,148.403885 50.707737,151.088318 54.811398,150.911392 
	C64.970779,150.473389 71.488068,143.550079 71.938065,133.321426 
	C72.376579,123.353745 73.151657,113.395164 74.083908,103.461197 
	C74.219406,102.017380 76.019020,99.586342 77.107162,99.553513 
	C87.147888,99.250526 97.201515,99.374802 107.947510,99.374802 
	C106.768867,103.449783 105.810272,105.938484 105.347252,108.516205 
	C103.826324,116.983459 101.585655,125.453445 101.305527,133.977722 
	C100.964783,144.346573 106.603790,148.989670 116.980370,148.964310 
	C130.295441,148.931793 148.033081,136.094330 151.544418,123.356270 
	C152.509903,119.853790 151.691193,115.859482 151.691193,112.090858 
	C151.148102,111.943222 150.605011,111.795578 150.061920,111.647942 
	C148.477921,112.993431 146.863083,114.304489 145.315536,115.690697 
	C140.118958,120.345520 135.173492,125.318123 129.687744,129.600067 
	C125.783188,132.647812 123.016945,131.120300 123.015701,126.108727 
	C123.014725,122.182030 123.401390,118.101822 124.524124,114.362534 
	C126.430267,108.014076 129.079437,101.890556 131.367004,95.654404 
	C135.960312,83.132576 140.398651,70.529930 139.068176,56.880962 
	C138.121002,47.164078 134.486649,38.853973 124.464478,33.847115 
z"/>
<path fill="#000000" opacity="1.000000" stroke="none" 
	d="
M9.508951,1.000000 
	C7.226638,3.983814 4.453276,6.967628 1.339957,9.975721 
	C1.000000,7.082645 1.000000,4.165290 1.000000,1.000000 
	C3.670005,1.000000 6.343954,1.000000 9.508951,1.000000 
z"/>
<path fill="#000000" opacity="1.000000" stroke="none" 
	d="
M181.000000,9.508953 
	C178.016190,7.226641 175.032364,4.453280 172.024277,1.339959 
	C174.917358,1.000000 177.834702,1.000000 181.000000,1.000000 
	C181.000000,3.670005 181.000000,6.343954 181.000000,9.508953 
z"/>
<path fill="#000000" opacity="1.000000" stroke="none" 
	d="
M0.999998,172.491058 
	C3.983810,174.773361 6.967623,177.546722 9.975718,180.660034 
	C7.082646,181.000000 4.165292,181.000000 1.000000,181.000000 
	C1.000000,178.330002 1.000000,175.656052 0.999998,172.491058 
z"/>
<path fill="#000000" opacity="1.000000" stroke="none" 
	d="
M172.491058,181.000000 
	C174.773361,178.016190 177.546722,175.032379 180.660034,172.024292 
	C181.000000,174.917358 181.000000,177.834702 181.000000,181.000000 
	C178.330002,181.000000 175.656052,181.000000 172.491058,181.000000 
z"/>
<path fill="#EADAB9" opacity="1.000000" stroke="none" 
	d="
M124.815598,33.994106 
	C134.486649,38.853973 138.121002,47.164078 139.068176,56.880962 
	C140.398651,70.529930 135.960312,83.132576 131.367004,95.654404 
	C129.079437,101.890556 126.430267,108.014076 124.524124,114.362534 
	C123.401390,118.101822 123.014725,122.182030 123.015701,126.108727 
	C123.016945,131.120300 125.783188,132.647812 129.687744,129.600067 
	C135.173492,125.318123 140.118958,120.345520 145.315536,115.690697 
	C146.863083,114.304489 148.477921,112.993431 150.061920,111.647942 
	C150.605011,111.795578 151.148102,111.943222 151.691193,112.090858 
	C151.691193,115.859482 152.509903,119.853790 151.544418,123.356270 
	C148.033081,136.094330 130.295441,148.931793 116.980370,148.964310 
	C106.603790,148.989670 100.964783,144.346573 101.305527,133.977722 
	C101.585655,125.453445 103.826324,116.983459 105.347252,108.516205 
	C105.810272,105.938484 106.768867,103.449783 107.947510,99.374802 
	C97.201515,99.374802 87.147888,99.250526 77.107162,99.553513 
	C76.019020,99.586342 74.219406,102.017380 74.083908,103.461197 
	C73.151657,113.395164 72.376579,123.353745 71.938065,133.321426 
	C71.488068,143.550079 64.970779,150.473389 54.811398,150.911392 
	C50.707737,151.088318 47.146263,148.403885 47.118858,143.471817 
	C47.071182,134.892532 47.706909,126.273415 48.656643,117.737823 
	C49.250416,112.401413 50.944016,107.187386 52.299911,101.234360 
	C47.991520,101.787613 44.427170,102.314407 40.846687,102.685547 
	C37.314522,103.051666 33.766033,103.260254 30.224705,103.537964 
	C29.844465,102.980682 29.464226,102.423393 29.083986,101.866112 
	C30.754417,99.477715 31.903170,96.121811 34.195076,94.886002 
	C40.554573,91.456955 47.284130,88.617722 54.089039,86.158577 
	C56.825390,85.169716 58.520412,84.219131 59.676014,81.398109 
	C64.868477,68.722397 71.192032,56.647335 80.660568,46.551731 
	C87.471176,39.290077 95.056877,32.626671 105.404556,31.864624 
	C111.675194,31.402830 118.105759,33.112831 124.815598,33.994106 
M96.674934,54.937664 
	C86.003799,61.554325 81.761627,72.264961 77.855934,84.238647 
	C85.713577,84.238647 92.995476,84.164375 100.275330,84.254646 
	C113.993996,84.424767 114.047905,84.473564 116.410065,70.776611 
	C117.418213,64.930893 117.983620,58.761414 112.961266,54.499958 
	C108.096237,50.371986 102.561539,52.616882 96.674934,54.937664 
z"/>
<path fill="#030356" opacity="1.000000" stroke="none" 
	d="
M97.015869,54.775581 
	C102.561539,52.616882 108.096237,50.371986 112.961266,54.499958 
	C117.983620,58.761414 117.418213,64.930893 116.410065,70.776611 
	C114.047905,84.473564 113.993996,84.424767 100.275330,84.254646 
	C92.995476,84.164375 85.713577,84.238647 77.855934,84.238647 
	C81.761627,72.264961 86.003799,61.554325 97.015869,54.775581 
z"/>
</svg>